<svg xmlns="http://www.w3.org/2000/svg" width="26.453" height="37.739" viewBox="0 0 26.453 37.739">
  <g id="app_store2" transform="translate(-1111.941 -423.617)">
    <path id="Path_18724" data-name="Path 18724" d="M1138.251,585.914c-1.744,4.448-4.377,8.458-7.331,8.458a9.4,9.4,0,0,1-3.831-.819,2.326,2.326,0,0,0-1.827,0,9.4,9.4,0,0,1-3.831.819c-5.243,0-9.49-12.645-9.49-17.888a9.47,9.47,0,0,1,13.321-8.671,2.326,2.326,0,0,0,1.827,0,9.441,9.441,0,0,1,11.3,2.835,8.308,8.308,0,0,0-.142,15.267Z" transform="translate(0 -133.016)"/>
    <ellipse id="Ellipse_1" data-name="Ellipse 1" cx="5.738" cy="2.548" rx="5.738" ry="2.548" transform="translate(1124.389 431.873) rotate(-46)"/>
  </g>
</svg>
