<svg xmlns="http://www.w3.org/2000/svg" width="35.025" height="37.739" viewBox="0 0 35.025 37.739">
  <g id="play_store2" transform="translate(-16.896)">
    <path id="Path_18743" data-name="Path 18743" d="M37.252,26.014,18.3,44.264a3.225,3.225,0,0,1-1.405-2.69V10.455A3.225,3.225,0,0,1,18.3,7.765Z" transform="translate(0 -7.141)" fill="#2196f3"/>
    <path id="Path_18744" data-name="Path 18744" d="M59.973,12.5l-6.631,6.374L34.39.624A2.526,2.526,0,0,1,34.613.47,3.242,3.242,0,0,1,37.886.418Z" transform="translate(-16.089 0)" fill="#4caf50"/>
    <path id="Path_18745" data-name="Path 18745" d="M285,161.979a3.276,3.276,0,0,1-1.714,2.913l-6.323,3.461-6.631-6.374,6.631-6.374,6.323,3.461A3.277,3.277,0,0,1,285,161.979Z" transform="translate(-233.084 -143.106)" fill="#ffc107"/>
    <path id="Path_18746" data-name="Path 18746" d="M59.973,241.339,37.886,253.42a3.285,3.285,0,0,1-3.273-.051,2.529,2.529,0,0,1-.223-.154l18.952-18.249Z" transform="translate(-16.089 -216.092)" fill="#f44336"/>
  </g>
</svg>
